<svg width="100" height="100" viewBox="0 0 100 100" fill="none" xmlns="http://www.w3.org/2000/svg">
<path d="M91.2439 74.1724C83.2298 86.6734 69.2255 94.9652 53.2823 94.9996C28.5828 95.0533 8.30203 75.0741 8.00338 50.3763C7.72248 27.1375 24.9879 7.87243 47.3831 5.00474C47.8618 4.94339 48.1736 5.49095 47.8827 5.87591C42.4829 13.0234 39.2815 21.9223 39.2815 31.5711C39.2815 55.1368 58.3847 74.2399 81.9503 74.2399C84.9393 74.2399 87.8552 73.9333 90.6703 73.3478C91.143 73.2495 91.5044 73.766 91.2439 74.1724Z" fill="#EFDA45"/>
<path d="M90.6714 73.3471C91.1432 73.249 91.5046 73.7642 91.2446 74.1701C83.2138 86.6983 69.168 95 53.183 95C28.2282 95 8.00073 74.7705 8.00073 49.8177C8.00073 39.8319 11.2393 30.6037 16.7256 23.1235C15.48 27.2096 14.7989 31.5413 14.7717 36.0292C14.6192 61.1716 34.8123 81.4924 59.9552 81.4913C69.0661 81.491 77.5467 78.7945 84.6412 74.1542C86.695 74.0279 88.7079 73.7556 90.6714 73.3471Z" fill="#EDC148"/>
</svg>
