<svg width="30" height="30" viewBox="0 0 30 30" fill="none" xmlns="http://www.w3.org/2000/svg">
<g clip-path="url(#clip0_4_32)">
<path d="M9.17817 22.4706C9.17817 23.4301 8.40028 24.208 7.44075 24.208C6.48122 24.208 5.70333 23.4301 5.70333 22.4706C5.70333 21.571 6.61218 20.3493 7.1152 19.742C7.28448 19.5377 7.59702 19.5377 7.7663 19.742C8.26938 20.3493 9.17817 21.5709 9.17817 22.4706Z" fill="#8AC9FE"/>
<path d="M16.7374 22.4706C16.7374 23.4301 15.9595 24.208 15 24.208C14.0405 24.208 13.2626 23.4301 13.2626 22.4706C13.2626 21.571 14.1714 20.3493 14.6744 19.742C14.8437 19.5377 15.1563 19.5377 15.3255 19.742C15.8286 20.3493 16.7374 21.5709 16.7374 22.4706Z" fill="#8AC9FE"/>
<path d="M24.2966 22.4706C24.2966 23.4301 23.5187 24.208 22.5592 24.208C21.5996 24.208 20.8218 23.4301 20.8218 22.4706C20.8218 21.571 21.7306 20.3493 22.2336 19.742C22.4029 19.5377 22.7154 19.5377 22.8847 19.742C23.3877 20.3493 24.2966 21.5709 24.2966 22.4706Z" fill="#8AC9FE"/>
<path d="M12.9578 28.2611C12.9578 29.2206 12.1799 29.9985 11.2204 29.9985C10.2608 29.9985 9.48293 29.2206 9.48293 28.2611C9.48293 27.3615 10.3918 26.1398 10.8948 25.5326C11.0641 25.3283 11.3766 25.3283 11.5459 25.5326C12.049 26.1398 12.9578 27.3615 12.9578 28.2611Z" fill="#8AC9FE"/>
<path d="M20.517 28.2611C20.517 29.2206 19.7391 29.9985 18.7796 29.9985C17.8201 29.9985 17.0422 29.2206 17.0422 28.2611C17.0422 27.3615 17.951 26.1398 18.454 25.5326C18.6233 25.3283 18.9359 25.3283 19.1051 25.5326C19.6082 26.1398 20.517 27.3615 20.517 28.2611Z" fill="#8AC9FE"/>
<path d="M8.02676 24.1065C7.84336 24.1721 7.64648 24.2079 7.44082 24.2079C6.48106 24.2079 5.70352 23.4303 5.70352 22.4706C5.70352 21.5712 6.61231 20.3495 7.11504 19.7419C7.28438 19.5374 7.59727 19.5374 7.7666 19.7419C7.84512 19.8368 7.93359 19.9469 8.02676 20.0682C7.52227 20.7233 6.87539 21.7118 6.87539 22.4706C6.87539 23.2247 7.35527 23.8663 8.02676 24.1065Z" fill="#60B7FF"/>
<path d="M15.5859 24.1065C15.4025 24.1721 15.2057 24.2079 15 24.2079C14.0402 24.2079 13.2627 23.4303 13.2627 22.4706C13.2627 21.5712 14.1715 20.3495 14.6742 19.7419C14.8436 19.5374 15.1564 19.5374 15.3258 19.7419C15.4043 19.8368 15.4928 19.9469 15.5859 20.0682C15.0814 20.7233 14.4346 21.7118 14.4346 22.4706C14.4346 23.2247 14.9145 23.8663 15.5859 24.1065Z" fill="#60B7FF"/>
<path d="M23.1451 24.1065C22.9617 24.1721 22.7648 24.2079 22.5592 24.2079C21.5994 24.2079 20.8219 23.4303 20.8219 22.4706C20.8219 21.5712 21.7307 20.3495 22.2334 19.7419C22.4027 19.5374 22.7156 19.5374 22.885 19.7419C22.9635 19.8368 23.052 19.9469 23.1451 20.0682C22.6406 20.7233 21.9937 21.7118 21.9937 22.4706C21.9937 23.2247 22.4736 23.8663 23.1451 24.1065Z" fill="#60B7FF"/>
<path d="M11.8061 29.8973C11.6232 29.963 11.4258 29.9987 11.2201 29.9987C10.2609 29.9987 9.48281 29.2206 9.48281 28.2608C9.48281 27.3614 10.3916 26.1397 10.8949 25.5327C11.0643 25.3282 11.3766 25.3282 11.5459 25.5327C11.6244 25.6276 11.7129 25.7372 11.8066 25.8579C11.3021 26.513 10.6547 27.5014 10.6547 28.2608C10.6547 29.0149 11.1352 29.6571 11.8061 29.8973Z" fill="#60B7FF"/>
<path d="M19.3658 29.8973C19.1824 29.963 18.9855 29.9987 18.7799 29.9987C17.8201 29.9987 17.042 29.2206 17.042 28.2608C17.042 27.3614 17.9508 26.1397 18.4541 25.5327C18.6234 25.3282 18.9357 25.3282 19.1051 25.5327C19.1836 25.6276 19.2721 25.7372 19.3658 25.8579C18.8613 26.513 18.2139 27.5014 18.2139 28.2608C18.2139 29.0149 18.6943 29.6571 19.3658 29.8973Z" fill="#60B7FF"/>
<path d="M25.4269 7.92005H23.3697C23.0551 3.49417 19.3654 0.00128174 14.8594 0.00128174C11.3381 0.00128174 8.31539 2.1345 7.01215 5.17904C6.67916 5.12161 6.33686 5.09138 5.98746 5.09138C2.68066 5.09132 0 7.77198 0 11.0788C0 14.3856 2.68066 17.0662 5.98746 17.0662H25.4269C27.9526 17.0662 30 15.0188 30 12.4931C30 9.96749 27.9526 7.92005 25.4269 7.92005Z" fill="#EDEBED"/>
<path d="M16.369 0.134641C13.5097 0.644114 11.1429 2.57929 10.0304 5.17909C9.69721 5.12173 9.35496 5.09156 9.00551 5.09156C5.69889 5.09156 3.01816 7.77222 3.01816 11.0789C3.01816 14.3856 5.69883 17.0662 9.00551 17.0662H5.9874C2.68066 17.0662 0 14.3856 0 11.079C0 7.77234 2.68066 5.09161 5.98734 5.09161C6.33685 5.09161 6.6791 5.12179 7.01227 5.17915C8.31551 2.13445 11.3384 0.00128174 14.8594 0.00128174C15.3742 0.00128174 15.8788 0.0471606 16.369 0.134641Z" fill="#DBD9DC"/>
</g>
<defs>
<clipPath id="clip0_4_32">
<rect width="30" height="30" fill="white"/>
</clipPath>
</defs>
</svg>
