<svg width="30" height="30" viewBox="0 0 30 30" fill="none" xmlns="http://www.w3.org/2000/svg">
<g clip-path="url(#clip0_5_0)">
<path d="M29.9999 14.9999C29.9999 14.5654 29.6477 14.2132 29.2132 14.2132H27.9753L29.1538 13.0347C29.461 12.7274 29.461 12.2293 29.1538 11.9221C28.8465 11.6149 28.3484 11.6148 28.0412 11.9221L25.75 14.2132H24.5854L25.7639 13.0347C26.0712 12.7275 26.0712 12.2293 25.7639 11.9221C25.4566 11.6149 24.9585 11.6149 24.6513 11.9221L22.3601 14.2133H16.8994L20.7607 10.3519H24.0009C24.4354 10.3519 24.7876 9.99973 24.7876 9.5652C24.7876 9.13067 24.4354 8.77846 24.0009 8.77846H22.3343L23.1577 7.95499H26.3979C26.8324 7.95499 27.1846 7.60279 27.1846 7.16826C27.1846 6.73373 26.8324 6.38153 26.3979 6.38153H24.7313L25.6067 5.50614C25.9139 5.19888 25.9139 4.70071 25.6067 4.39351C25.2994 4.08625 24.8012 4.08625 24.494 4.39351L23.6186 5.26889V3.60203C23.6186 3.1675 23.2664 2.8153 22.8319 2.8153C22.3974 2.8153 22.0452 3.1675 22.0452 3.60203V6.84219L21.2217 7.66566V5.99909C21.2217 5.56456 20.8695 5.21235 20.435 5.21235C20.0004 5.21235 19.6482 5.56456 19.6482 5.99909V9.23924L15.7869 13.1006V7.63988L18.078 5.3487C18.3853 5.04144 18.3853 4.54327 18.078 4.23607C17.7707 3.92881 17.2726 3.92881 16.9654 4.23607L15.7869 5.41456V4.24996L18.078 1.95878C18.3853 1.65151 18.3853 1.15335 18.078 0.846147C17.7707 0.538884 17.2726 0.538884 16.9654 0.846147L15.7869 2.02464V0.786734C15.7867 0.352205 15.4345 0 15 0C14.5655 0 14.2133 0.352205 14.2133 0.786734V2.02464L13.0348 0.846147C12.7275 0.538884 12.2294 0.538884 11.9222 0.846147C11.6149 1.15341 11.6149 1.65157 11.9222 1.95878L14.2133 4.24996V5.41456L13.0349 4.23607C12.7276 3.92881 12.2295 3.92881 11.9222 4.23607C11.615 4.54333 11.615 5.04149 11.9222 5.3487L14.2134 7.63988V13.1006L10.352 9.23924V5.99903C10.352 5.5645 9.99983 5.21229 9.5653 5.21229C9.13077 5.21229 8.77857 5.5645 8.77857 5.99903V7.66566L7.9551 6.84219V3.60197C7.9551 3.16744 7.60289 2.81524 7.16836 2.81524C6.73383 2.81524 6.38163 3.16744 6.38163 3.60197V5.2686L5.50613 4.39339C5.19886 4.08613 4.7007 4.08613 4.3935 4.39339C4.08623 4.70066 4.08623 5.19882 4.3935 5.50602L5.26888 6.38141H3.60213C3.16761 6.38141 2.8154 6.73361 2.8154 7.16814C2.8154 7.60267 3.16761 7.95488 3.60213 7.95488H6.84229L7.66576 8.77835H5.99919C5.56466 8.77835 5.21246 9.13055 5.21246 9.56508C5.21246 9.99961 5.56466 10.3518 5.99919 10.3518H9.23935L13.1007 14.2132H7.63998L5.34875 11.922C5.04148 11.6147 4.54338 11.6147 4.23611 11.922C3.92885 12.2293 3.92885 12.7274 4.23611 13.0346L5.4146 14.2131H4.25006L1.95888 11.922C1.65162 11.6147 1.15352 11.6147 0.846251 11.922C0.538988 12.2293 0.538988 12.7274 0.846251 13.0346L2.02474 14.2131H0.786838C0.352309 14.2131 0.000103951 14.5654 0.000103951 14.9999C0.000103951 15.4344 0.352309 15.7866 0.786838 15.7866H2.0248L0.84631 16.9651C0.539046 17.2724 0.539046 17.7706 0.84631 18.0778C0.999942 18.2314 1.20127 18.3082 1.4026 18.3082C1.60392 18.3082 1.80531 18.2314 1.95888 18.0778L4.25006 15.7866H5.41466L4.23617 16.9651C3.92891 17.2724 3.92891 17.7706 4.23617 18.0778C4.3898 18.2314 4.59113 18.3082 4.79246 18.3082C4.99379 18.3082 5.19517 18.2314 5.34875 18.0778L7.63992 15.7866H13.1007L9.23929 19.648H5.99913C5.5646 19.648 5.2124 20.0002 5.2124 20.4347C5.2124 20.8692 5.5646 21.2214 5.99913 21.2214H7.66576L6.84229 22.0449H3.60208C3.16755 22.0449 2.81534 22.3971 2.81534 22.8316C2.81534 23.2662 3.16755 23.6184 3.60208 23.6184H5.26871L4.39332 24.4937C4.08606 24.801 4.08606 25.2991 4.39332 25.6064C4.54695 25.76 4.74828 25.8368 4.94961 25.8368C5.15093 25.8368 5.35232 25.76 5.50589 25.6064L6.38128 24.731V26.3976C6.38128 26.8321 6.73348 27.1844 7.16801 27.1844C7.60254 27.1844 7.95475 26.8321 7.95475 26.3976V23.1575L8.77822 22.334V24.0006C8.77822 24.4352 9.13042 24.7874 9.56495 24.7874C9.99948 24.7874 10.3517 24.4352 10.3517 24.0006V20.7605L14.213 16.8991V22.3598L11.9219 24.651C11.6146 24.9583 11.6146 25.4564 11.9219 25.7636C12.2291 26.0709 12.7273 26.0709 13.0345 25.7636L14.213 24.5851V25.7497L11.9218 28.0409C11.6145 28.3481 11.6145 28.8463 11.9218 29.1535C12.0754 29.3071 12.2768 29.3839 12.4781 29.3839C12.6795 29.3839 12.8808 29.3071 13.0344 29.1535L14.2129 27.975V29.2129C14.2129 29.6474 14.5651 29.9996 14.9996 29.9996C15.4341 29.9996 15.7863 29.6474 15.7863 29.2129V27.975L16.9649 29.1536C17.2722 29.4608 17.7703 29.4608 18.0775 29.1536C18.3847 28.8463 18.3848 28.3482 18.0775 28.0409L15.7863 25.7498V24.5851L16.9649 25.7637C17.1185 25.9173 17.3199 25.9941 17.5212 25.9941C17.7224 25.9941 17.9239 25.9173 18.0775 25.7637C18.3847 25.4564 18.3847 24.9583 18.0775 24.6511L15.7863 22.3599V16.8995L19.6476 20.7609V24.001C19.6476 24.4356 19.9999 24.7878 20.4344 24.7878C20.8689 24.7878 21.2211 24.4356 21.2211 24.001V22.3344L22.0446 23.1579V26.398C22.0446 26.8326 22.3968 27.1848 22.8313 27.1848C23.2658 27.1848 23.6181 26.8326 23.6181 26.398V24.7314L24.4934 25.6068C24.6471 25.7604 24.8485 25.8372 25.0497 25.8372C25.2511 25.8372 25.4524 25.7604 25.606 25.6068C25.9133 25.2995 25.9133 24.8014 25.606 24.4942L24.7306 23.6188H26.3973C26.8318 23.6188 27.184 23.2666 27.184 22.832C27.184 22.3975 26.8318 22.0453 26.3973 22.0453H23.1571L22.3336 21.2218H24.0003C24.4348 21.2218 24.787 20.8696 24.787 20.4351C24.787 20.0006 24.4348 19.6484 24.0003 19.6484H20.7601L16.8987 15.787H22.3595L24.6506 18.0782C24.8043 18.2318 25.0057 18.3086 25.2069 18.3086C25.4082 18.3086 25.6096 18.2318 25.7632 18.0782C26.0705 17.7709 26.0705 17.2728 25.7632 16.9655L24.5847 15.787H25.7493L28.0404 18.0782C28.1941 18.2318 28.3955 18.3086 28.5967 18.3086C28.7981 18.3086 28.9994 18.2318 29.153 18.0782C29.4603 17.7709 29.4603 17.2728 29.153 16.9655L27.9745 15.787H29.2124C29.6477 15.7866 29.9999 15.4344 29.9999 14.9999Z" fill="#EDEBED"/>
</g>
<defs>
<clipPath id="clip0_5_0">
<rect width="30" height="30" fill="white"/>
</clipPath>
</defs>
</svg>
